<?xml version="1.0" encoding="UTF-8"?>
<svg width="426px" height="151px" viewBox="0 0 426 151" version="1.1" xmlns="http://www.w3.org/2000/svg" xmlns:xlink="http://www.w3.org/1999/xlink">
    <!-- Generator: sketchtool 52.5 (67469) - http://www.bohemiancoding.com/sketch -->
    <title>logo</title>
    <desc>Created with sketchtool.</desc>
    <g id="Page-1" stroke="none" stroke-width="1" fill="none" fill-rule="evenodd">
        <g id="logo" fill="#000000">
            <g id="Group-7">
                <path d="M426,148 L321.634137,148 C302.536779,148 287,132.456747 287,113.347501 C287,94.2350567 302.536779,78.6918038 321.634137,78.6918038 L391.369059,78.6918038 C393.126975,78.6918038 394.558877,77.2622083 394.558877,75.5 C394.558877,73.7409899 393.126975,72.3081962 391.369059,72.3081962 L321.634137,72.3081962 C302.536779,72.3081962 287,56.7649433 287,37.6556972 C287,18.5464511 302.536779,3 321.634137,3 L426,3 L426,34.4638934 L321.634137,34.4638934 C319.873025,34.4638934 318.444319,35.8934889 318.444319,37.6556972 C318.444319,39.4147073 319.873025,40.847501 321.634137,40.847501 L391.369059,40.847501 C410.463221,40.847501 426,56.3907539 426,75.5 C426,94.6092461 410.463221,110.152499 391.369059,110.152499 L321.634137,110.152499 C319.873025,110.152499 318.444319,111.585293 318.444319,113.347501 C318.444319,115.106511 319.873025,116.536107 321.634137,116.536107 L426,116.536107 L426,148 Z" id="Fill-1"></path>
                <path d="M218.489004,150.999999 C199.154268,151.003201 179.829134,143.642267 165.109643,128.920399 C150.854236,114.653187 143,95.692139 143,75.5208112 C143,55.3462815 150.854236,36.3820315 165.109643,22.1180211 C179.36825,7.85721247 198.325317,0 218.489004,0 C238.652691,0 257.609757,7.85721247 271.868365,22.1212229 L283,33.2570766 L260.736729,55.528784 L249.605094,44.3929303 C241.293174,36.0778607 230.241553,31.4992894 218.489004,31.4992894 C206.736455,31.4992894 195.684834,36.0778607 187.376114,44.3929303 C179.064195,52.7079999 174.484157,63.7606068 174.484157,75.5208112 C174.484157,87.2778137 179.064195,98.3304206 187.376114,106.64549 C204.531251,123.81033 232.446756,123.81033 249.605094,106.642288 L260.736729,95.5096365 L283,117.781344 L271.868365,128.920399 C257.152074,143.635863 237.817338,150.999999 218.489004,150.999999" id="Fill-3"></path>
                <path d="M63.2459787,151 C43.5469867,151 25.0247678,143.307453 11.0916455,129.341931 L0,118.221949 L22.183291,95.9819831 L33.2781257,107.101966 C41.2827347,115.123828 51.9247189,119.545604 63.2459787,119.545604 C86.6156102,119.545604 105.628949,100.48369 105.628949,77.054353 L105.628949,3 L137,3 L137,77.054353 C137,117.828689 103.916409,151 63.2459787,151" id="Fill-5"></path>
            </g>
        </g>
    </g>
</svg>